{"asset":{"version":"2.0","generator":"THREE.GLTFExporter"},"scenes":[{"name":"AuxScene","nodes":[4]}],"scene":0,"nodes":[{"name":"Mesh_salmon","mesh":1},{"name":"Mesh_salmon_1","mesh":2},{"matrix":[0.85,0,0,0,0,1.69491529,0,0,0,0,1.15,0,5.41433571e-16,0.0664,0,1],"name":"salmon","extras":{"name":"salmon"},"children":[0,1]},{"matrix":[1,0,0,0,0,0.59,0,0,0,0,1,0,0,0,0,1],"name":"sushiSalmon","extras":{"name":"sushiSalmon"},"mesh":0,"children":[2]},{"children":[3]}],"bufferViews":[{"buffer":0,"byteOffset":0,"byteLength":2688,"target":34962,"byteStride":12},{"buffer":0,"byteOffset":2688,"byteLength":2688,"target":34962,"byteStride":12},{"buffer":0,"byteOffset":5376,"byteLength":1792,"target":34962,"byteStride":8},{"buffer":0,"byteOffset":7168,"byteLength":2448,"target":34963},{"buffer":0,"byteOffset":9616,"byteLength":816,"target":34962,"byteStride":12},{"buffer":0,"byteOffset":10432,"byteLength":816,"target":34962,"byteStride":12},{"buffer":0,"byteOffset":11248,"byteLength":544,"target":34962,"byteStride":8},{"buffer":0,"byteOffset":11792,"byteLength":480,"target":34963},{"buffer":0,"byteOffset":12272,"byteLength":288,"target":34962,"byteStride":12},{"buffer":0,"byteOffset":12560,"byteLength":288,"target":34962,"byteStride":12},{"buffer":0,"byteOffset":12848,"byteLength":192,"target":34962,"byteStride":8},{"buffer":0,"byteOffset":13040,"byteLength":144,"target":34963}],"buffers":[{"byteLength":13184,"uri":"data:application/octet-stream;base64,"}],"accessors":[{"bufferView":0,"componentType":5126,"count":224,"max":[0.053940143436193466,0.06643985956907272,0.08729293197393417],"min":[-0.053950000554323196,0,-0.08729293197393417],"type":"VEC3"},{"bufferView":1,"componentType":5126,"count":224,"max":[1,1,1],"min":[-1,-1,-1],"type":"VEC3"},{"bufferView":2,"componentType":5126,"count":224,"max":[0,1],"min":[0,1],"type":"VEC2"},{"bufferView":3,"componentType":5125,"count":612,"max":[223],"min":[0],"type":"SCALAR"},{"bufferView":4,"componentType":5126,"count":68,"max":[0.043982602655887604,0.04997915029525757,0.08729293197393417],"min":[-0.043949998915195465,0,-0.08729293197393417],"type":"VEC3"},{"bufferView":5,"componentType":5126,"count":68,"max":[1,1,0.9476810693740845],"min":[-1,-1,-0.9476810693740845],"type":"VEC3"},{"bufferView":6,"componentType":5126,"count":68,"max":[3.436729669570923,4.436729431152344],"min":[-3.436729669570923,-2.436729669570923],"type":"VEC2"},{"bufferView":7,"componentType":5125,"count":120,"max":[67],"min":[0],"type":"SCALAR"},{"bufferView":8,"componentType":5126,"count":24,"max":[0.043949998915195465,0.0499831922352314,0.0359838530421257],"min":[-0.043949998915195465,0,-0.0359850749373436],"type":"VEC3"},{"bufferView":9,"componentType":5126,"count":24,"max":[1,1,0],"min":[-1,0,0],"type":"VEC3"},{"bufferView":10,"componentType":5126,"count":24,"max":[1.7303149700164795,2.417703866958618],"min":[-1.7303149700164795,-0.9685039520263672],"type":"VEC2"},{"bufferView":11,"componentType":5125,"count":36,"max":[23],"min":[0],"type":"SCALAR"}],"materials":[{"pbrMetallicRoughness":{"metallicFactor":0.8,"roughnessFactor":1},"alphaMode":"BLEND","name":"_defaultMat"},{"pbrMetallicRoughness":{"baseColorFactor":[1,0.45098039215686275,0.22745098039215686,1],"metallicFactor":0.8,"roughnessFactor":1},"alphaMode":"BLEND","name":"orange"},{"pbrMetallicRoughness":{"baseColorFactor":[0.9764705882352941,0.7725490196078432,0.5490196078431373,1],"metallicFactor":0.8,"roughnessFactor":1},"alphaMode":"BLEND","name":"brownLight"}],"meshes":[{"primitives":[{"mode":4,"attributes":{"POSITION":0,"NORMAL":1,"TEXCOORD_0":2},"indices":3,"material":0}]},{"primitives":[{"mode":4,"attributes":{"POSITION":4,"NORMAL":5,"TEXCOORD_0":6},"indices":7,"material":1}]},{"primitives":[{"mode":4,"attributes":{"POSITION":8,"NORMAL":9,"TEXCOORD_0":10},"indices":11,"material":2}]}]}